<svg width="55" height="77" viewBox="0 0 55 77" fill="none" xmlns="http://www.w3.org/2000/svg">
<path d="M23.1871 31.2546L23.3355 31.9286C14.5652 33.0761 9.65911 33.8743 1 36.5716C3.54399 54.7091 7.1521 62.6499 18.2154 75.4009C10.5504 62.0657 5.66861 54.7765 6.41691 38.7434C12.9112 35.7015 16.8808 34.6169 24.0775 32.9021L24.3002 33.314L9.83031 40.7654C9.83232 53.8634 12.2736 59.6253 18.2154 69.0354C13.908 59.0963 11.914 53.3815 12.7614 41.7015L24.8938 34.1752V34.6246C22.6606 36.2738 21.3745 37.3162 19.0316 39.3425C18.7415 42.488 18.7484 44.3004 19.0316 47.6176C21.1441 51.7443 22.9777 53.7798 28.0475 56.6415C32.2814 53.8912 34.574 52.2746 36.7294 47.6176V39.3425C34.5254 37.3508 33.2358 36.2713 30.5333 34.6246L30.9043 34.1752L42.8883 41.7015C43.1428 52.9681 41.5292 58.8051 37.9908 69.0354C43.4127 58.8191 45.5916 52.784 45.9678 40.7654L31.3496 33.314L31.6093 32.64C38.6165 34.4434 42.4955 35.7562 49.307 38.7434C49.7732 54.9779 44.855 62.4529 36.7665 76C46.6364 62.3445 53.6436 56.1584 54.39 36.5716C45.8296 33.9415 41.0158 32.7211 32.3513 31.9286L32.611 31.2546C39.089 31.0342 42.7366 31.09 49.307 31.9286C50.0695 24.3471 49.4827 20.4721 45.5597 14.6296C47.2984 20.2927 47.6053 23.4945 46.5985 29.2701C41.0138 29.1373 37.9575 29.2954 32.611 29.9066L32.0916 29.2701C35.6278 27.0875 37.6575 26.0453 41.4413 24.8143C42.5699 13.8262 40.9461 8.82432 35.8018 1C39.162 9.52363 39.6268 14.3474 38.3619 23.017L31.3496 27.9596L30.9043 27.3605L32.611 25.3759C31.547 23.9363 30.8238 23.3345 29.346 22.5676C30.0987 23.7163 30.4399 24.349 30.3107 25.3759L29.346 26.312H26.5634C25.8616 25.9524 25.5754 25.7477 25.4132 25.3759C25.2448 24.2284 25.4888 23.6236 26.1182 22.5676C24.6453 23.3332 23.9987 23.9409 23.1871 25.3759L24.8938 27.3605L24.3002 27.9596C21.2301 26.0925 19.8011 24.9966 17.3992 23.017C15.9309 14.6446 16.4919 9.81687 19.6253 1C13.9831 9.83886 13.217 15.0978 14.5052 24.8143C18.3554 26.3709 20.2403 27.3898 23.4839 29.2701L23.1871 29.9066C17.6225 28.9743 14.6258 29.0655 9.23668 29.008C7.80371 25.5757 8.06666 21.052 10.0529 14.6296C5.92634 20.5901 5.73482 24.5554 6.41691 31.9286C12.7866 31.2138 16.3363 30.7583 23.1871 31.2546Z" fill="#F4F7FB" stroke="#EDF1F7"/>
</svg>
